<?xml version="1.0" encoding="UTF-8" standalone="no"?>
<!-- Created with Inkscape (http://www.inkscape.org/) -->

<svg
   xmlns:dc="http://purl.org/dc/elements/1.1/"
   xmlns:cc="http://creativecommons.org/ns#"
   xmlns:rdf="http://www.w3.org/1999/02/22-rdf-syntax-ns#"
   xmlns:svg="http://www.w3.org/2000/svg"
   xmlns="http://www.w3.org/2000/svg"
   xmlns:sodipodi="http://sodipodi.sourceforge.net/DTD/sodipodi-0.dtd"
   xmlns:inkscape="http://www.inkscape.org/namespaces/inkscape"
   width="105mm"
   height="74mm"
   viewBox="0 0 105 74"
   version="1.1"
   id="svg8"
   inkscape:version="0.92.1 r15371"
   sodipodi:docname="expanded-no-ramp.svg">
  <sodipodi:namedview
     id="base"
     pagecolor="#ffffff"
     bordercolor="#666666"
     borderopacity="1.0"
     inkscape:pageopacity="0.0"
     inkscape:pageshadow="2"
     inkscape:zoom="1"
     inkscape:cx="196.41797"
     inkscape:cy="139.84079"
     inkscape:document-units="mm"
     inkscape:current-layer="layer2"
     showgrid="true"
     showguides="false"
     inkscape:window-width="1366"
     inkscape:window-height="715"
     inkscape:window-x="-8"
     inkscape:window-y="-8"
     inkscape:window-maximized="1"
     fit-margin-top="0"
     fit-margin-left="0"
     fit-margin-right="0"
     fit-margin-bottom="0"
     showborder="true">
    <inkscape:grid
       id="grid815"
       type="xygrid"
       originx="-10.50101"
       originy="-70.114579" />
  </sodipodi:namedview>
  <defs
     id="defs2">
    <marker
       inkscape:isstock="true"
       style="overflow:visible"
       id="marker2386"
       refX="0"
       refY="0"
       orient="auto"
       inkscape:stockid="TriangleOutM">
      <path
         transform="scale(0.4)"
         style="fill:#000000;fill-opacity:1;fill-rule:evenodd;stroke:#000000;stroke-width:1.00000003pt;stroke-opacity:1"
         d="M 5.77,0 -2.88,5 V -5 Z"
         id="path2384"
         inkscape:connector-curvature="0" />
    </marker>
    <marker
       inkscape:isstock="true"
       style="overflow:visible"
       id="marker2348"
       refX="0"
       refY="0"
       orient="auto"
       inkscape:stockid="TriangleInM">
      <path
         transform="scale(-0.4)"
         style="fill:#000000;fill-opacity:1;fill-rule:evenodd;stroke:#000000;stroke-width:1.00000003pt;stroke-opacity:1"
         d="M 5.77,0 -2.88,5 V -5 Z"
         id="path2346"
         inkscape:connector-curvature="0" />
    </marker>
    <marker
       inkscape:isstock="true"
       style="overflow:visible"
       id="marker2300"
       refX="0"
       refY="0"
       orient="auto"
       inkscape:stockid="TriangleOutM">
      <path
         transform="scale(0.4)"
         style="fill:#000000;fill-opacity:1;fill-rule:evenodd;stroke:#000000;stroke-width:1.00000003pt;stroke-opacity:1"
         d="M 5.77,0 -2.88,5 V -5 Z"
         id="path2298"
         inkscape:connector-curvature="0" />
    </marker>
    <marker
       inkscape:stockid="TriangleOutM"
       orient="auto"
       refY="0"
       refX="0"
       id="TriangleOutM"
       style="overflow:visible"
       inkscape:isstock="true"
       inkscape:collect="always">
      <path
         id="path2127"
         d="M 5.77,0 -2.88,5 V -5 Z"
         style="fill:#000000;fill-opacity:1;fill-rule:evenodd;stroke:#000000;stroke-width:1.00000003pt;stroke-opacity:1"
         transform="scale(0.4)"
         inkscape:connector-curvature="0" />
    </marker>
    <marker
       inkscape:isstock="true"
       style="overflow:visible"
       id="marker2260"
       refX="0"
       refY="0"
       orient="auto"
       inkscape:stockid="TriangleInM">
      <path
         transform="scale(-0.4)"
         style="fill:#000000;fill-opacity:1;fill-rule:evenodd;stroke:#000000;stroke-width:1.00000003pt;stroke-opacity:1"
         d="M 5.77,0 -2.88,5 V -5 Z"
         id="path2258"
         inkscape:connector-curvature="0" />
    </marker>
    <marker
       inkscape:stockid="TriangleInM"
       orient="auto"
       refY="0"
       refX="0"
       id="TriangleInM"
       style="overflow:visible"
       inkscape:isstock="true"
       inkscape:collect="always">
      <path
         id="path2118"
         d="M 5.77,0 -2.88,5 V -5 Z"
         style="fill:#000000;fill-opacity:1;fill-rule:evenodd;stroke:#000000;stroke-width:1.00000003pt;stroke-opacity:1"
         transform="scale(-0.4)"
         inkscape:connector-curvature="0" />
    </marker>
  </defs>
  <metadata
     id="metadata5">
    <rdf:RDF>
      <cc:Work
         rdf:about="">
        <dc:format>image/svg+xml</dc:format>
        <dc:type
           rdf:resource="http://purl.org/dc/dcmitype/StillImage" />
        <dc:title></dc:title>
      </cc:Work>
    </rdf:RDF>
  </metadata>
  <g
     transform="translate(-10.50101,-152.88541)"
     id="layer1"
     inkscape:groupmode="layer"
     inkscape:label="Layer 1"
     style="display:inline">
    <path
       inkscape:connector-curvature="0"
       id="path827"
       d="m 10.563804,180.74605 25.166925,-8.38898 79.695261,25.16692"
       style="fill:none;stroke:#000000;stroke-width:0.70555556;stroke-linecap:butt;stroke-linejoin:miter;stroke-miterlimit:4;stroke-dasharray:none;stroke-dashoffset:0;stroke-opacity:1" />
    <path
       inkscape:connector-curvature="0"
       id="path829"
       d="m 10.563804,205.91297 88.084239,-33.5559 16.777947,4.19449"
       style="fill:none;stroke:#000000;stroke-width:0.70555558;stroke-linecap:butt;stroke-linejoin:miter;stroke-miterlimit:4;stroke-dasharray:2.11666673,0.70555558;stroke-dashoffset:0;stroke-opacity:1" />
  </g>
  <g
     inkscape:groupmode="layer"
     id="layer2"
     inkscape:label="text"
     style="display:inline"
     transform="translate(0,17.083153)">
    <g
       transform="matrix(0.46608355,0,0,0.46608355,25.425488,12.830582)"
       id="g891"
       style="stroke-width:0.07568981;stroke-miterlimit:10.43299961;stroke-dasharray:none">
      <g
         style="font-style:normal;font-variant:normal;font-weight:normal;font-stretch:normal;letter-spacing:normal;word-spacing:normal;text-anchor:start;fill:none;fill-opacity:1;fill-rule:evenodd;stroke:#000000;stroke-width:0.35799236;stroke-linecap:butt;stroke-linejoin:miter;stroke-miterlimit:10.43299961;stroke-dasharray:none;stroke-dashoffset:0;stroke-opacity:1"
         word-spacing="normal"
         letter-spacing="normal"
         font-size-adjust="none"
         font-stretch="normal"
         font-weight="normal"
         font-variant="normal"
         font-style="normal"
         stroke-miterlimit="10.433"
         xml:space="preserve"
         transform="matrix(0.21142857,0,0,-0.21142857,-37,157.5)"
         id="content"><polygon
           style="fill:#000000;stroke-width:0.35799236;stroke-miterlimit:10.43299961;stroke-dasharray:none"
           id="polygon882"
           points="483.48,447.08 476.85,453.86 470.18,447.08 471.07,446.19 476.85,451.27 482.59,446.19 " /><path
           style="fill:#000000;stroke-width:0.35799236;stroke-miterlimit:10.43299961;stroke-dasharray:none"
           inkscape:connector-curvature="0"
           id="path884"
           d="m 481.22,440.23 v 0 0.01 0 0.01 0.02 0.01 0.02 0.02 l -0.01,0.02 v 0.02 l -0.01,0.02 v 0.02 l -0.01,0.02 -0.01,0.03 -0.01,0.02 -0.01,0.03 -0.02,0.02 -0.01,0.03 -0.02,0.02 -0.02,0.02 -0.02,0.03 -0.02,0.01 -0.01,0.01 -0.01,0.01 -0.02,0.01 -0.01,0.01 -0.02,0.01 -0.01,0.01 -0.02,0.01 -0.01,0.01 -0.02,0.01 h -0.02 l -0.02,0.01 -0.02,0.01 h -0.02 l -0.02,0.01 -0.03,0.01 h -0.02 -0.02 l -0.03,0.01 h -0.03 -0.02 l -0.03,0.01 h -0.03 -0.03 c -0.75,0 -5.48,-0.46 -6.33,-0.55 -0.4,-0.05 -0.7,-0.3 -0.7,-0.95 0,-0.6 0.45,-0.6 1.2,-0.6 2.39,0 2.49,-0.34 2.49,-0.84 l -0.14,-1 -3,-11.81 c -0.89,1.84 -2.35,3.18 -4.58,3.18 l 0.05,-1.09 c 3.23,0 3.93,-4.08 3.93,-4.37 0,-0.32 -0.09,-0.61 -0.14,-0.86 l -2.5,-9.77 c -0.25,-0.89 -0.25,-0.98 -1,-1.84 -2.18,-2.74 -4.23,-3.53 -5.62,-3.53 -2.49,0 -3.19,2.73 -3.19,4.68 0,2.49 1.59,8.61 2.74,10.91 1.54,2.94 3.79,4.78 5.78,4.78 l -0.05,1.09 c -5.83,0 -12,-7.31 -12,-14.59 0,-4.69 2.73,-7.97 6.62,-7.97 0.99,0 3.49,0.21 6.47,3.74 0.41,-2.1 2.14,-3.74 4.53,-3.74 1.75,0 2.9,1.14 3.69,2.74 0.85,1.79 1.5,4.84 1.5,4.93 0,0.5 -0.45,0.5 -0.59,0.5 -0.5,0 -0.55,-0.2 -0.7,-0.9 -0.85,-3.24 -1.75,-6.17 -3.79,-6.17 -1.34,0 -1.5,1.29 -1.5,2.29 0,1.19 0.1,1.55 0.3,2.39 z" /><path
           style="fill:#000000;stroke-width:0.35799236;stroke-miterlimit:10.43299961;stroke-dasharray:none"
           inkscape:connector-curvature="0"
           id="path886"
           d="m 502.72,436.43 0.02,0.07 0.01,0.06 0.03,0.12 0.03,0.12 0.03,0.11 0.03,0.11 0.03,0.09 0.03,0.1 0.03,0.09 0.03,0.08 0.03,0.08 0.03,0.07 0.02,0.07 0.03,0.06 0.03,0.06 0.03,0.06 0.04,0.05 0.03,0.05 0.03,0.04 0.03,0.04 0.04,0.04 0.03,0.04 0.04,0.03 0.04,0.03 0.04,0.03 0.04,0.02 0.04,0.03 0.05,0.02 0.04,0.02 0.05,0.01 0.05,0.02 0.05,0.01 0.06,0.02 c 0.45,0.11 2.09,0.11 3.14,0.11 5.03,0 7.27,-0.21 7.27,-4.1 0,-0.73 -0.19,-2.68 -0.39,-3.98 -0.05,-0.19 -0.16,-0.8 -0.16,-0.94 0,-0.3 0.16,-0.66 0.59,-0.66 0.57,0 0.66,0.41 0.75,1.16 l 1.35,8.66 c 0.06,0.2 0.11,0.7 0.11,0.86 0,0.54 -0.5,0.54 -1.35,0.54 h -27.65 c -1.21,0 -1.25,-0.06 -1.6,-1 l -2.98,-8.76 c -0.06,-0.11 -0.3,-0.8 -0.3,-0.91 0,-0.3 0.24,-0.55 0.59,-0.55 0.5,0 0.55,0.25 0.85,1.05 2.69,7.72 3.98,8.63 11.36,8.63 h 1.94 c 1.4,0 1.4,-0.21 1.4,-0.6 0,-0.31 -0.15,-0.9 -0.2,-1.04 l -6.67,-26.61 c -0.46,-1.85 -0.61,-2.39 -5.94,-2.39 -1.8,0 -2.09,0 -2.09,-0.96 0,-0.59 0.54,-0.59 0.84,-0.59 1.36,0 2.75,0.09 4.09,0.09 1.39,0 2.85,0.07 4.24,0.07 1.39,0 2.78,-0.07 4.14,-0.07 1.44,0 2.94,-0.09 4.33,-0.09 0.5,0 1.09,0 1.09,1 0,0.55 -0.39,0.55 -1.69,0.55 -1.25,0 -1.89,0 -3.19,0.09 -1.45,0.16 -1.84,0.3 -1.84,1.09 0,0.07 0,0.32 0.19,1.05 z" /><path
           style="fill:#000000;stroke-width:0.35799236;stroke-miterlimit:10.43299961;stroke-dasharray:none"
           inkscape:connector-curvature="0"
           id="path888"
           d="m 525.62,411.86 -0.09,-0.03 -0.08,-0.02 -0.08,-0.03 -0.08,-0.02 -0.07,-0.04 -0.07,-0.03 -0.08,-0.04 -0.06,-0.04 -0.07,-0.04 -0.07,-0.04 -0.06,-0.05 -0.06,-0.05 -0.05,-0.05 -0.06,-0.05 -0.05,-0.05 -0.05,-0.06 -0.04,-0.05 -0.05,-0.06 -0.04,-0.06 -0.04,-0.06 -0.03,-0.06 -0.03,-0.06 -0.03,-0.06 -0.03,-0.06 -0.02,-0.07 -0.02,-0.06 -0.02,-0.07 -0.02,-0.06 -0.01,-0.07 -0.01,-0.06 v -0.07 -0.06 c 0,-0.81 0.7,-1.12 1.15,-1.12 0.35,0 1.68,0.21 1.68,1.98 0,2.27 -2.5,3.03 -4.63,3.03 -5.44,0 -6.42,-4 -6.42,-5.08 0,-1.29 0.73,-2.12 1.22,-2.54 0.9,-0.71 1.53,-0.83 3.94,-1.25 0.73,-0.14 2.96,-0.57 2.96,-2.3 0,-0.59 -0.39,-1.92 -1.84,-2.8 -1.36,-0.76 -3.08,-0.76 -3.48,-0.76 -1.41,0 -3.39,0.31 -4.19,1.47 1.16,0.14 1.92,1 1.92,1.98 0,0.87 -0.62,1.28 -1.36,1.28 -1.01,0 -2.03,-0.8 -2.03,-2.33 0,-2.09 2.23,-3.37 5.61,-3.37 6.42,0 7.61,4.39 7.61,5.75 0,3.2 -3.53,3.83 -4.81,4.08 -0.32,0.06 -1.19,0.2 -1.39,0.26 -1.3,0.25 -1.93,0.99 -1.93,1.75 0,0.8 0.63,1.74 1.39,2.24 0.94,0.59 2.16,0.65 2.75,0.65 0.74,0 2.55,-0.11 3.32,-1.29 z" /></g>    </g>
    <g
       id="g947"
       transform="matrix(0.66583363,0,0,0.66583363,-39.690601,-43.526008)"
       style="stroke-width:0.05298287;stroke-miterlimit:10.43299961;stroke-dasharray:none">
      <g
         id="g945"
         transform="matrix(0.21142857,0,0,-0.21142857,-37,157.5)"
         xml:space="preserve"
         stroke-miterlimit="10.433"
         font-style="normal"
         font-variant="normal"
         font-weight="normal"
         font-stretch="normal"
         font-size-adjust="none"
         letter-spacing="normal"
         word-spacing="normal"
         style="font-style:normal;font-variant:normal;font-weight:normal;font-stretch:normal;letter-spacing:normal;word-spacing:normal;text-anchor:start;fill:none;fill-opacity:1;fill-rule:evenodd;stroke:#000000;stroke-width:0.25059466;stroke-linecap:butt;stroke-linejoin:miter;stroke-miterlimit:10.43299961;stroke-dasharray:none;stroke-dashoffset:0;stroke-opacity:1"><path
           d="m 469.68,437.34 -0.01,0.09 v 0.09 l -0.01,0.1 -0.02,0.08 -0.01,0.09 -0.03,0.09 -0.02,0.08 -0.03,0.08 -0.03,0.08 -0.04,0.08 -0.04,0.08 -0.05,0.07 -0.04,0.07 -0.06,0.07 -0.05,0.06 -0.06,0.06 -0.06,0.06 -0.06,0.06 -0.07,0.05 -0.07,0.05 -0.08,0.05 -0.07,0.04 -0.09,0.04 -0.08,0.04 -0.08,0.03 -0.09,0.03 -0.1,0.02 -0.09,0.02 -0.1,0.02 -0.1,0.01 h -0.1 l -0.11,0.01 c -1.36,0 -2.7,-1.3 -2.7,-2.64 0,-0.96 0.7,-1.8 1.91,-1.8 1.14,0 2.64,1.14 2.64,2.64 z"
           id="path939"
           inkscape:connector-curvature="0"
           style="fill:#000000;stroke-width:0.25059466;stroke-miterlimit:10.43299961;stroke-dasharray:none" /><path
           d="m 465.88,418.61 0.05,0.13 0.05,0.12 0.05,0.12 0.05,0.11 0.04,0.1 0.04,0.1 0.03,0.09 0.04,0.09 0.03,0.09 0.04,0.08 0.03,0.08 0.02,0.08 0.03,0.07 0.03,0.07 0.05,0.15 0.05,0.14 0.05,0.14 0.03,0.07 0.03,0.08 0.03,0.08 0.02,0.08 0.04,0.08 0.03,0.09 0.03,0.1 0.04,0.09 0.03,0.11 0.04,0.11 0.05,0.11 0.04,0.13 c 0.41,1 0.66,1.68 0.66,2.64 0,2.23 -1.59,4.07 -4.09,4.07 -4.68,0 -6.58,-7.21 -6.58,-7.67 0,-0.5 0.5,-0.5 0.61,-0.5 0.5,0 0.54,0.11 0.79,0.91 1.35,4.69 3.33,6.17 5.03,6.17 0.4,0 1.25,0 1.25,-1.59 0,-1.05 -0.35,-2.1 -0.56,-2.6 -0.39,-1.29 -2.64,-7.06 -3.44,-9.22 -0.48,-1.28 -1.14,-2.93 -1.14,-3.98 0,-2.33 1.69,-4.08 4.1,-4.08 4.67,0 6.51,7.22 6.51,7.67 0,0.5 -0.43,0.5 -0.59,0.5 -0.5,0 -0.5,-0.15 -0.75,-0.9 -0.89,-3.13 -2.53,-6.17 -5.08,-6.17 -0.84,0 -1.2,0.5 -1.2,1.64 0,1.25 0.31,1.95 1.45,4.98 z"
           id="path941"
           inkscape:connector-curvature="0"
           style="fill:#000000;stroke-width:0.25059466;stroke-miterlimit:10.43299961;stroke-dasharray:none" /><path
           d="m 487.95,412.11 -0.12,-0.03 -0.11,-0.02 -0.11,-0.03 -0.1,-0.04 -0.1,-0.03 -0.1,-0.04 -0.09,-0.05 -0.09,-0.05 -0.08,-0.05 -0.08,-0.05 -0.07,-0.06 -0.07,-0.06 -0.07,-0.06 -0.06,-0.07 -0.06,-0.06 -0.06,-0.07 -0.05,-0.07 -0.05,-0.07 -0.04,-0.07 -0.05,-0.08 -0.03,-0.07 -0.04,-0.08 -0.03,-0.07 -0.03,-0.08 -0.02,-0.07 -0.02,-0.08 -0.02,-0.08 -0.01,-0.07 -0.01,-0.08 -0.01,-0.07 v -0.08 l -0.01,-0.07 c 0,-0.94 0.74,-1.28 1.36,-1.28 0.77,0 1.99,0.55 1.99,2.22 0,2.37 -2.72,3.03 -4.6,3.03 -5.23,0 -10.07,-4.8 -10.07,-9.64 0,-3 2.09,-6.06 6.45,-6.06 5.89,0 8.64,3.44 8.64,3.94 0,0.2 -0.31,0.59 -0.59,0.59 -0.21,0 -0.29,-0.08 -0.57,-0.36 -2.72,-3.2 -6.79,-3.2 -7.42,-3.2 -2.5,0 -3.62,1.7 -3.62,3.87 0,1 0.5,4.8 2.31,7.2 1.31,1.72 3.12,2.69 4.87,2.69 0.49,0 2.16,-0.06 3.04,-1.04 z"
           id="path943"
           inkscape:connector-curvature="0"
           style="fill:#000000;stroke-width:0.25059466;stroke-miterlimit:10.43299961;stroke-dasharray:none" /></g>    </g>
    <g
       id="g1019"
       transform="matrix(0.09854338,0,0,-0.09854338,-32.53723,56.025458)"
       xml:space="preserve"
       stroke-miterlimit="10.433"
       font-style="normal"
       font-variant="normal"
       font-weight="normal"
       font-stretch="normal"
       font-size-adjust="none"
       letter-spacing="normal"
       word-spacing="normal"
       style="font-style:normal;font-variant:normal;font-weight:normal;font-stretch:normal;letter-spacing:normal;word-spacing:normal;text-anchor:start;fill:none;fill-opacity:1;fill-rule:evenodd;stroke:#000000;stroke-width:0.35799236;stroke-linecap:butt;stroke-linejoin:miter;stroke-miterlimit:10.43299961;stroke-dasharray:none;stroke-dashoffset:0;stroke-opacity:1"><polygon
         points="458.35,444.51 464.13,449.59 469.87,444.51 470.76,445.4 464.13,452.18 457.46,445.4 "
         id="polygon1005"
         style="fill:#000000;stroke-width:0.35799236;stroke-miterlimit:10.43299961;stroke-dasharray:none" /><path
         d="m 469.68,437.34 -0.01,0.09 v 0.09 l -0.01,0.1 -0.02,0.08 -0.01,0.09 -0.03,0.09 -0.02,0.08 -0.03,0.08 -0.03,0.08 -0.04,0.08 -0.04,0.08 -0.05,0.07 -0.04,0.07 -0.06,0.07 -0.05,0.06 -0.06,0.06 -0.06,0.06 -0.06,0.06 -0.07,0.05 -0.07,0.05 -0.08,0.05 -0.07,0.04 -0.09,0.04 -0.08,0.04 -0.08,0.03 -0.09,0.03 -0.1,0.02 -0.09,0.02 -0.1,0.02 -0.1,0.01 h -0.1 l -0.11,0.01 c -1.36,0 -2.7,-1.3 -2.7,-2.64 0,-0.96 0.7,-1.8 1.91,-1.8 1.14,0 2.64,1.14 2.64,2.64 z"
         id="path1007"
         inkscape:connector-curvature="0"
         style="fill:#000000;stroke-width:0.35799236;stroke-miterlimit:10.43299961;stroke-dasharray:none" /><path
         d="m 465.88,418.61 0.05,0.13 0.05,0.12 0.05,0.12 0.05,0.11 0.04,0.1 0.04,0.1 0.03,0.09 0.04,0.09 0.03,0.09 0.04,0.08 0.03,0.08 0.02,0.08 0.03,0.07 0.03,0.07 0.05,0.15 0.05,0.14 0.05,0.14 0.03,0.07 0.03,0.08 0.03,0.08 0.02,0.08 0.04,0.08 0.03,0.09 0.03,0.1 0.04,0.09 0.03,0.11 0.04,0.11 0.05,0.11 0.04,0.13 c 0.41,1 0.66,1.68 0.66,2.64 0,2.23 -1.59,4.07 -4.09,4.07 -4.68,0 -6.58,-7.21 -6.58,-7.67 0,-0.5 0.5,-0.5 0.61,-0.5 0.5,0 0.54,0.11 0.79,0.91 1.35,4.69 3.33,6.17 5.03,6.17 0.4,0 1.25,0 1.25,-1.59 0,-1.05 -0.35,-2.1 -0.56,-2.6 -0.39,-1.29 -2.64,-7.06 -3.44,-9.22 -0.48,-1.28 -1.14,-2.93 -1.14,-3.98 0,-2.33 1.69,-4.08 4.1,-4.08 4.67,0 6.51,7.22 6.51,7.67 0,0.5 -0.43,0.5 -0.59,0.5 -0.5,0 -0.5,-0.15 -0.75,-0.9 -0.89,-3.13 -2.53,-6.17 -5.08,-6.17 -0.84,0 -1.2,0.5 -1.2,1.64 0,1.25 0.31,1.95 1.45,4.98 z"
         id="path1009"
         inkscape:connector-curvature="0"
         style="fill:#000000;stroke-width:0.35799236;stroke-miterlimit:10.43299961;stroke-dasharray:none" /><path
         d="m 487.04,419.7 0.03,0.12 0.03,0.11 0.02,0.1 0.03,0.1 0.03,0.1 0.04,0.09 0.03,0.08 0.04,0.08 0.04,0.08 0.04,0.07 0.05,0.07 0.06,0.06 0.06,0.06 0.07,0.06 0.07,0.05 0.09,0.05 0.09,0.04 0.1,0.04 0.11,0.04 0.12,0.03 0.07,0.02 0.06,0.01 0.07,0.02 0.08,0.01 0.07,0.01 0.08,0.01 0.08,0.02 0.09,0.01 h 0.09 l 0.09,0.01 0.1,0.01 0.1,0.01 0.1,0.01 h 0.11 l 0.11,0.01 h 0.11 l 0.12,0.01 h 0.12 0.13 0.13 l 0.13,0.01 h 0.14 0.15 0.14 c 1.08,0 1.43,0 1.43,0.76 0,0.04 -0.04,0.49 -0.6,0.49 -0.79,0 -1.73,-0.06 -2.58,-0.11 -0.87,-0.03 -1.9,-0.03 -2.78,-0.03 -0.73,0 -1.67,0.03 -2.4,0.03 -0.74,0 -1.57,0.11 -2.27,0.11 -0.2,0 -0.73,0 -0.73,-0.77 0,-0.48 0.42,-0.48 1.12,-0.48 0.03,0 0.69,0 1.31,-0.08 0.74,-0.06 0.82,-0.14 0.82,-0.48 0,-0.07 0,-0.24 -0.14,-0.77 l -4.64,-18.5 c -0.32,-1.19 -0.4,-1.47 -3.07,-1.47 -0.59,0 -1.04,0 -1.04,-0.73 0,-0.52 0.42,-0.52 1.04,-0.52 h 17.52 c 0.87,0 0.9,0.03 1.19,0.7 0.36,0.94 2.96,7.69 2.96,7.97 0,0.11 -0.07,0.5 -0.59,0.5 -0.42,0 -0.48,-0.18 -0.7,-0.73 -1.31,-3.31 -2.86,-7.19 -9.24,-7.19 h -3.93 c -1.08,0 -1.11,0.05 -1.11,0.36 0,0.03 0,0.2 0.14,0.72 z"
         id="path1011"
         inkscape:connector-curvature="0"
         style="fill:#000000;stroke-width:0.35799236;stroke-miterlimit:10.43299961;stroke-dasharray:none" /><path
         d="m 519.04,394.25 v 0.02 0.03 0.01 0.02 l -0.01,0.01 v 0.02 l -0.01,0.01 v 0.02 l -0.01,0.02 -0.01,0.02 -0.01,0.02 -0.02,0.03 -0.01,0.02 -0.02,0.03 -0.02,0.03 -0.03,0.03 -0.02,0.03 -0.03,0.04 -0.02,0.02 -0.02,0.02 -0.01,0.02 -0.02,0.02 -0.02,0.02 -0.02,0.03 -0.02,0.02 -0.02,0.02 -0.03,0.03 -0.02,0.02 -0.02,0.03 -0.03,0.03 -0.03,0.03 -0.02,0.03 -0.03,0.03 -0.03,0.03 -0.03,0.03 -0.04,0.03 -0.03,0.04 -0.03,0.03 -0.04,0.04 -0.03,0.03 -0.04,0.04 -0.04,0.04 c -6.22,6.28 -7.81,15.69 -7.81,23.31 0,8.67 1.89,17.35 8.01,23.56 0.64,0.61 0.64,0.71 0.64,0.86 0,0.35 -0.19,0.49 -0.48,0.49 -0.5,0 -4.99,-3.38 -7.92,-9.7 -2.55,-5.49 -3.14,-11.02 -3.14,-15.21 0,-3.89 0.54,-9.9 3.28,-15.54 2.98,-6.13 7.28,-9.36 7.78,-9.36 0.29,0 0.48,0.14 0.48,0.5 z"
         id="path1013"
         inkscape:connector-curvature="0"
         style="fill:#000000;stroke-width:0.35799236;stroke-miterlimit:10.43299961;stroke-dasharray:none" /><path
         d="m 544.8,422.14 -0.01,0.74 -0.01,0.75 -0.02,0.75 -0.03,0.74 -0.04,0.75 -0.06,0.74 -0.08,0.74 -0.1,0.73 -0.11,0.73 -0.14,0.73 -0.16,0.72 -0.19,0.72 -0.22,0.72 -0.24,0.7 -0.28,0.7 -0.15,0.35 -0.16,0.34 c -2.28,4.8 -6.38,5.6 -8.47,5.6 -2.99,0 -6.63,-1.3 -8.67,-5.94 -1.6,-3.44 -1.85,-7.33 -1.85,-11.31 0,-3.74 0.21,-8.22 2.25,-12 2.14,-4.03 5.78,-5.03 8.22,-5.03 v 1.09 c -1.94,0 -4.89,1.25 -5.78,6.03 -0.55,2.98 -0.55,7.56 -0.55,10.52 0,3.18 0,6.46 0.41,9.15 0.94,5.94 4.67,6.38 5.92,6.38 1.64,0 4.94,-0.89 5.88,-5.83 0.5,-2.78 0.5,-6.58 0.5,-9.7 0,-3.75 0,-7.13 -0.55,-10.32 -0.75,-4.73 -3.59,-6.23 -5.83,-6.23 v 0 -1.09 c 2.69,0 6.47,1.04 8.67,5.78 1.6,3.43 1.85,7.31 1.85,11.25 z"
         id="path1015"
         inkscape:connector-curvature="0"
         style="fill:#000000;stroke-width:0.35799236;stroke-miterlimit:10.43299961;stroke-dasharray:none" /><path
         d="m 561.22,418.65 v 0.37 0.39 l -0.01,0.39 -0.02,0.41 -0.04,0.84 -0.06,0.88 -0.08,0.92 -0.1,0.95 -0.14,0.97 -0.16,1.01 -0.2,1.02 -0.23,1.03 -0.27,1.05 -0.3,1.06 -0.35,1.07 -0.39,1.07 -0.22,0.53 -0.22,0.53 -0.24,0.53 -0.25,0.53 c -2.98,6.12 -7.26,9.36 -7.76,9.36 -0.3,0 -0.5,-0.19 -0.5,-0.49 0,-0.15 0,-0.25 0.93,-1.15 4.89,-4.92 7.74,-12.85 7.74,-23.27 0,-8.51 -1.85,-17.28 -8.03,-23.56 -0.64,-0.59 -0.64,-0.7 -0.64,-0.84 0,-0.3 0.2,-0.5 0.5,-0.5 0.5,0 4.97,3.39 7.92,9.71 2.53,5.47 3.12,11 3.12,15.19 z"
         id="path1017"
         inkscape:connector-curvature="0"
         style="fill:#000000;stroke-width:0.35799236;stroke-miterlimit:10.43299961;stroke-dasharray:none" /></g>    <g
       transform="matrix(0.46608355,0,0,0.46608355,61.353482,-19.375084)"
       id="g1115"
       style="stroke-width:0.07568981;stroke-miterlimit:10.43299961;stroke-dasharray:none">
      <g
         style="font-style:normal;font-variant:normal;font-weight:normal;font-stretch:normal;letter-spacing:normal;word-spacing:normal;text-anchor:start;fill:none;fill-opacity:1;fill-rule:evenodd;stroke:#000000;stroke-width:0.35799236;stroke-linecap:butt;stroke-linejoin:miter;stroke-miterlimit:10.43299961;stroke-dasharray:none;stroke-dashoffset:0;stroke-opacity:1"
         id="g1113"
         transform="matrix(0.21142857,0,0,-0.21142857,-37,157.5)"
         xml:space="preserve"
         stroke-miterlimit="10.433"
         font-style="normal"
         font-variant="normal"
         font-weight="normal"
         font-stretch="normal"
         font-size-adjust="none"
         letter-spacing="normal"
         word-spacing="normal"><polygon
           style="fill:#000000;stroke-width:0.35799236;stroke-miterlimit:10.43299961;stroke-dasharray:none"
           points="464.13,449.59 469.87,444.51 470.76,445.4 464.13,452.18 457.46,445.4 458.35,444.51 "
           id="polygon1097" /><path
           style="fill:#000000;stroke-width:0.35799236;stroke-miterlimit:10.43299961;stroke-dasharray:none"
           inkscape:connector-curvature="0"
           d="m 469.68,437.34 -0.01,0.09 v 0.09 l -0.01,0.1 -0.02,0.08 -0.01,0.09 -0.03,0.09 -0.02,0.08 -0.03,0.08 -0.03,0.08 -0.04,0.08 -0.04,0.08 -0.05,0.07 -0.04,0.07 -0.06,0.07 -0.05,0.06 -0.06,0.06 -0.06,0.06 -0.06,0.06 -0.07,0.05 -0.07,0.05 -0.08,0.05 -0.07,0.04 -0.09,0.04 -0.08,0.04 -0.08,0.03 -0.09,0.03 -0.1,0.02 -0.09,0.02 -0.1,0.02 -0.1,0.01 h -0.1 l -0.11,0.01 c -1.36,0 -2.7,-1.3 -2.7,-2.64 0,-0.96 0.7,-1.8 1.91,-1.8 1.14,0 2.64,1.14 2.64,2.64 z"
           id="path1099" /><path
           style="fill:#000000;stroke-width:0.35799236;stroke-miterlimit:10.43299961;stroke-dasharray:none"
           inkscape:connector-curvature="0"
           d="m 465.88,418.61 0.05,0.13 0.05,0.12 0.05,0.12 0.05,0.11 0.04,0.1 0.04,0.1 0.03,0.09 0.04,0.09 0.03,0.09 0.04,0.08 0.03,0.08 0.02,0.08 0.03,0.07 0.03,0.07 0.05,0.15 0.05,0.14 0.05,0.14 0.03,0.07 0.03,0.08 0.03,0.08 0.02,0.08 0.04,0.08 0.03,0.09 0.03,0.1 0.04,0.09 0.03,0.11 0.04,0.11 0.05,0.11 0.04,0.13 c 0.41,1 0.66,1.68 0.66,2.64 0,2.23 -1.59,4.07 -4.09,4.07 -4.68,0 -6.58,-7.21 -6.58,-7.67 0,-0.5 0.5,-0.5 0.61,-0.5 0.5,0 0.54,0.11 0.79,0.91 1.35,4.69 3.33,6.17 5.03,6.17 0.4,0 1.25,0 1.25,-1.59 0,-1.05 -0.35,-2.1 -0.56,-2.6 -0.39,-1.29 -2.64,-7.06 -3.44,-9.22 -0.48,-1.28 -1.14,-2.93 -1.14,-3.98 0,-2.33 1.69,-4.08 4.1,-4.08 4.67,0 6.51,7.22 6.51,7.67 0,0.5 -0.43,0.5 -0.59,0.5 -0.5,0 -0.5,-0.15 -0.75,-0.9 -0.89,-3.13 -2.53,-6.17 -5.08,-6.17 -0.84,0 -1.2,0.5 -1.2,1.64 0,1.25 0.31,1.95 1.45,4.98 z"
           id="path1101" /><path
           style="fill:#000000;stroke-width:0.35799236;stroke-miterlimit:10.43299961;stroke-dasharray:none"
           inkscape:connector-curvature="0"
           d="m 487.04,419.7 0.03,0.12 0.03,0.11 0.02,0.1 0.03,0.1 0.03,0.1 0.04,0.09 0.03,0.08 0.04,0.08 0.04,0.08 0.04,0.07 0.05,0.07 0.06,0.06 0.06,0.06 0.07,0.06 0.07,0.05 0.09,0.05 0.09,0.04 0.1,0.04 0.11,0.04 0.12,0.03 0.07,0.02 0.06,0.01 0.07,0.02 0.08,0.01 0.07,0.01 0.08,0.01 0.08,0.02 0.09,0.01 h 0.09 l 0.09,0.01 0.1,0.01 0.1,0.01 0.1,0.01 h 0.11 l 0.11,0.01 h 0.11 l 0.12,0.01 h 0.12 0.13 0.13 l 0.13,0.01 h 0.14 0.15 0.14 c 1.08,0 1.43,0 1.43,0.76 0,0.04 -0.04,0.49 -0.6,0.49 -0.79,0 -1.73,-0.06 -2.58,-0.11 -0.87,-0.03 -1.9,-0.03 -2.78,-0.03 -0.73,0 -1.67,0.03 -2.4,0.03 -0.74,0 -1.57,0.11 -2.27,0.11 -0.2,0 -0.73,0 -0.73,-0.77 0,-0.48 0.42,-0.48 1.12,-0.48 0.03,0 0.69,0 1.31,-0.08 0.74,-0.06 0.82,-0.14 0.82,-0.48 0,-0.07 0,-0.24 -0.14,-0.77 l -4.64,-18.5 c -0.32,-1.19 -0.4,-1.47 -3.07,-1.47 -0.59,0 -1.04,0 -1.04,-0.73 0,-0.52 0.42,-0.52 1.04,-0.52 h 17.52 c 0.87,0 0.9,0.03 1.19,0.7 0.36,0.94 2.96,7.69 2.96,7.97 0,0.11 -0.07,0.5 -0.59,0.5 -0.42,0 -0.48,-0.18 -0.7,-0.73 -1.31,-3.31 -2.86,-7.19 -9.24,-7.19 h -3.93 c -1.08,0 -1.11,0.05 -1.11,0.36 0,0.03 0,0.2 0.14,0.72 z"
           id="path1103" /><path
           style="fill:#000000;stroke-width:0.35799236;stroke-miterlimit:10.43299961;stroke-dasharray:none"
           inkscape:connector-curvature="0"
           d="m 519.04,394.25 v 0.02 0.03 0.01 0.02 l -0.01,0.01 v 0.02 l -0.01,0.01 v 0.02 l -0.01,0.02 -0.01,0.02 -0.01,0.02 -0.02,0.03 -0.01,0.02 -0.02,0.03 -0.02,0.03 -0.03,0.03 -0.02,0.03 -0.03,0.04 -0.02,0.02 -0.02,0.02 -0.01,0.02 -0.02,0.02 -0.02,0.02 -0.02,0.03 -0.02,0.02 -0.02,0.02 -0.03,0.03 -0.02,0.02 -0.02,0.03 -0.03,0.03 -0.03,0.03 -0.02,0.03 -0.03,0.03 -0.03,0.03 -0.03,0.03 -0.04,0.03 -0.03,0.04 -0.03,0.03 -0.04,0.04 -0.03,0.03 -0.04,0.04 -0.04,0.04 c -6.22,6.28 -7.81,15.69 -7.81,23.31 0,8.67 1.89,17.35 8.01,23.56 0.64,0.61 0.64,0.71 0.64,0.86 0,0.35 -0.19,0.49 -0.48,0.49 -0.5,0 -4.99,-3.38 -7.92,-9.7 -2.55,-5.49 -3.14,-11.02 -3.14,-15.21 0,-3.89 0.54,-9.9 3.28,-15.54 2.98,-6.13 7.28,-9.36 7.78,-9.36 0.29,0 0.48,0.14 0.48,0.5 z"
           id="path1105" /><path
           style="fill:#000000;stroke-width:0.35799236;stroke-miterlimit:10.43299961;stroke-dasharray:none"
           inkscape:connector-curvature="0"
           d="m 543.16,436.43 0.01,0.07 0.02,0.06 0.03,0.12 0.03,0.12 0.03,0.11 0.03,0.11 0.03,0.09 0.03,0.1 0.03,0.09 0.02,0.08 0.03,0.08 0.03,0.07 0.03,0.07 0.03,0.06 0.03,0.06 0.03,0.06 0.03,0.05 0.03,0.05 0.04,0.04 0.03,0.04 0.04,0.04 0.03,0.04 0.04,0.03 0.04,0.03 0.04,0.03 0.04,0.02 0.04,0.03 0.05,0.02 0.04,0.02 0.05,0.01 0.05,0.02 0.05,0.01 0.06,0.02 c 0.45,0.11 2.09,0.11 3.14,0.11 5.03,0 7.26,-0.21 7.26,-4.1 0,-0.73 -0.18,-2.68 -0.39,-3.98 -0.04,-0.19 -0.15,-0.8 -0.15,-0.94 0,-0.3 0.15,-0.66 0.59,-0.66 0.56,0 0.66,0.41 0.75,1.16 l 1.34,8.66 c 0.07,0.2 0.11,0.7 0.11,0.86 0,0.54 -0.5,0.54 -1.34,0.54 h -27.66 c -1.2,0 -1.25,-0.06 -1.59,-1 l -2.98,-8.76 c -0.07,-0.11 -0.3,-0.8 -0.3,-0.91 0,-0.3 0.23,-0.55 0.59,-0.55 0.5,0 0.55,0.25 0.85,1.05 2.68,7.72 3.98,8.63 11.36,8.63 h 1.93 c 1.41,0 1.41,-0.21 1.41,-0.6 0,-0.31 -0.16,-0.9 -0.2,-1.04 l -6.68,-26.61 c -0.45,-1.85 -0.61,-2.39 -5.93,-2.39 -1.8,0 -2.1,0 -2.1,-0.96 0,-0.59 0.55,-0.59 0.85,-0.59 1.36,0 2.75,0.09 4.09,0.09 1.39,0 2.84,0.07 4.23,0.07 1.4,0 2.79,-0.07 4.15,-0.07 1.43,0 2.93,-0.09 4.32,-0.09 0.5,0 1.1,0 1.1,1 0,0.55 -0.39,0.55 -1.69,0.55 -1.25,0 -1.89,0 -3.19,0.09 -1.45,0.16 -1.84,0.3 -1.84,1.09 0,0.07 0,0.32 0.19,1.05 z"
           id="path1107" /><path
           style="fill:#000000;stroke-width:0.35799236;stroke-miterlimit:10.43299961;stroke-dasharray:none"
           inkscape:connector-curvature="0"
           d="m 566.05,411.86 -0.08,-0.03 -0.08,-0.02 -0.08,-0.03 -0.08,-0.02 -0.07,-0.04 -0.08,-0.03 -0.07,-0.04 -0.07,-0.04 -0.06,-0.04 -0.07,-0.04 -0.06,-0.05 -0.06,-0.05 -0.06,-0.05 -0.05,-0.05 -0.05,-0.05 -0.05,-0.06 -0.05,-0.05 -0.04,-0.06 -0.04,-0.06 -0.04,-0.06 -0.03,-0.06 -0.04,-0.06 -0.03,-0.06 -0.02,-0.06 -0.03,-0.07 -0.02,-0.06 -0.01,-0.07 -0.02,-0.06 -0.01,-0.07 -0.01,-0.06 v -0.07 -0.06 c 0,-0.81 0.7,-1.12 1.15,-1.12 0.35,0 1.67,0.21 1.67,1.98 0,2.27 -2.5,3.03 -4.62,3.03 -5.44,0 -6.42,-4 -6.42,-5.08 0,-1.29 0.73,-2.12 1.22,-2.54 0.9,-0.71 1.53,-0.83 3.93,-1.25 0.74,-0.14 2.97,-0.57 2.97,-2.3 0,-0.59 -0.39,-1.92 -1.84,-2.8 -1.36,-0.76 -3.08,-0.76 -3.49,-0.76 -1.4,0 -3.39,0.31 -4.18,1.47 1.15,0.14 1.92,1 1.92,1.98 0,0.87 -0.63,1.28 -1.36,1.28 -1.02,0 -2.03,-0.8 -2.03,-2.33 0,-2.09 2.23,-3.37 5.61,-3.37 6.42,0 7.61,4.39 7.61,5.75 0,3.2 -3.53,3.83 -4.82,4.08 -0.31,0.06 -1.18,0.2 -1.39,0.26 -1.29,0.25 -1.92,0.99 -1.92,1.75 0,0.8 0.63,1.74 1.39,2.24 0.94,0.59 2.16,0.65 2.75,0.65 0.74,0 2.55,-0.11 3.31,-1.29 z"
           id="path1109" /><path
           style="fill:#000000;stroke-width:0.35799236;stroke-miterlimit:10.43299961;stroke-dasharray:none"
           inkscape:connector-curvature="0"
           d="m 586.67,418.65 v 0.37 0.39 l -0.01,0.39 -0.02,0.41 -0.04,0.84 -0.06,0.88 -0.08,0.92 -0.11,0.95 -0.13,0.97 -0.16,1.01 -0.2,1.02 -0.23,1.03 -0.27,1.05 -0.3,1.06 -0.35,1.07 -0.39,1.07 -0.22,0.53 -0.22,0.53 -0.24,0.53 -0.25,0.53 c -2.98,6.12 -7.26,9.36 -7.76,9.36 -0.3,0 -0.5,-0.19 -0.5,-0.49 0,-0.15 0,-0.25 0.93,-1.15 4.89,-4.92 7.74,-12.85 7.74,-23.27 0,-8.51 -1.85,-17.28 -8.03,-23.56 -0.64,-0.59 -0.64,-0.7 -0.64,-0.84 0,-0.3 0.2,-0.5 0.5,-0.5 0.5,0 4.96,3.39 7.92,9.71 2.53,5.47 3.12,11 3.12,15.19 z"
           id="path1111" /></g>    </g>
    <g
       transform="matrix(0.46608355,0,0,0.46608355,-14.378217,2.0735)"
       id="g1217"
       style="stroke-width:0.07568981;stroke-miterlimit:10.43299961;stroke-dasharray:none">
      <g
         style="font-style:normal;font-variant:normal;font-weight:normal;font-stretch:normal;letter-spacing:normal;word-spacing:normal;text-anchor:start;fill:none;fill-opacity:1;fill-rule:evenodd;stroke:#000000;stroke-width:0.35799236;stroke-linecap:butt;stroke-linejoin:miter;stroke-miterlimit:10.43299961;stroke-dasharray:none;stroke-dashoffset:0;stroke-opacity:1"
         word-spacing="normal"
         letter-spacing="normal"
         font-size-adjust="none"
         font-stretch="normal"
         font-weight="normal"
         font-variant="normal"
         font-style="normal"
         stroke-miterlimit="10.433"
         xml:space="preserve"
         transform="matrix(0.21142857,0,0,-0.21142857,-37,157.5)"
         id="g1215"><path
           style="fill:#000000;stroke-width:0.35799236;stroke-miterlimit:10.43299961;stroke-dasharray:none"
           inkscape:connector-curvature="0"
           id="path1211"
           d="m 459.91,409.14 -0.02,-0.07 -0.01,-0.08 -0.02,-0.07 -0.01,-0.08 -0.04,-0.16 -0.04,-0.16 -0.03,-0.16 -0.04,-0.16 -0.04,-0.16 -0.03,-0.16 -0.02,-0.08 -0.02,-0.07 -0.02,-0.07 -0.01,-0.07 -0.02,-0.07 -0.01,-0.07 -0.01,-0.06 -0.01,-0.06 -0.01,-0.06 -0.01,-0.05 -0.01,-0.05 -0.01,-0.04 -0.01,-0.04 v -0.04 -0.03 -0.02 c 0,-0.89 0.7,-1.35 1.43,-1.35 0.61,0 1.5,0.39 1.85,1.39 0.06,0.11 0.65,2.44 0.95,3.69 l 1.1,4.48 c 0.29,1.1 0.59,2.19 0.84,3.35 0.2,0.84 0.61,2.28 0.66,2.48 0.75,1.55 3.39,6.08 8.1,6.08 2.25,0 2.71,-1.84 2.71,-3.48 0,-1.25 -0.36,-2.64 -0.75,-4.14 l -1.39,-5.79 -1,-3.78 c -0.21,-1 -0.66,-2.68 -0.66,-2.93 0,-0.89 0.7,-1.35 1.45,-1.35 1.55,0 1.85,1.25 2.24,2.85 0.7,2.78 2.55,10.06 3,12 0.14,0.65 2.78,6.62 8.22,6.62 2.14,0 2.68,-1.69 2.68,-3.48 0,-2.85 -2.09,-8.52 -3.09,-11.16 -0.45,-1.2 -0.64,-1.75 -0.64,-2.75 0,-2.33 1.73,-4.08 4.08,-4.08 4.69,0 6.53,7.27 6.53,7.67 0,0.5 -0.45,0.5 -0.59,0.5 -0.5,0 -0.5,-0.15 -0.75,-0.9 -0.75,-2.64 -2.35,-6.17 -5.08,-6.17 -0.86,0 -1.21,0.5 -1.21,1.64 0,1.25 0.46,2.45 0.9,3.54 0.95,2.58 3.04,8.11 3.04,10.96 0,3.23 -2,5.32 -5.73,5.32 -3.74,0 -6.27,-2.18 -8.11,-4.82 -0.06,0.65 -0.2,2.34 -1.61,3.53 -1.24,1.04 -2.83,1.29 -4.08,1.29 -4.48,0 -6.92,-3.18 -7.76,-4.32 -0.25,2.84 -2.35,4.32 -4.6,4.32 -2.28,0 -3.23,-1.93 -3.69,-2.82 -0.89,-1.75 -1.54,-4.69 -1.54,-4.85 0,-0.5 0.5,-0.5 0.61,-0.5 0.5,0 0.54,0.07 0.84,1.16 0.84,3.53 1.84,5.92 3.64,5.92 0.8,0 1.55,-0.39 1.55,-2.28 0,-1.05 -0.16,-1.61 -0.8,-4.19 z" /><path
           style="fill:#000000;stroke-width:0.35799236;stroke-miterlimit:10.43299961;stroke-dasharray:none"
           inkscape:connector-curvature="0"
           id="path1213"
           d="m 510.87,420.92 v 0.04 0.04 0.05 0.04 0.03 0.04 0.04 0.03 l -0.01,0.04 v 0.03 0.03 0.03 0.03 l -0.01,0.03 v 0.03 0.02 l -0.01,0.03 v 0.02 l -0.01,0.03 v 0.02 l -0.02,0.04 -0.01,0.04 -0.02,0.03 -0.02,0.03 -0.02,0.03 -0.02,0.03 -0.03,0.02 -0.03,0.02 -0.03,0.02 -0.04,0.01 -0.04,0.01 -0.05,0.02 h -0.02 -0.02 l -0.03,0.01 h -0.03 l -0.02,0.01 h -0.03 -0.03 -0.03 -0.04 l -0.03,0.01 h -0.03 -0.04 -0.03 -0.04 -0.04 -0.04 -0.04 -0.05 -0.04 -0.05 c -2.23,-2.2 -5.39,-2.23 -6.82,-2.23 v -1.25 c 0.84,0 3.14,0 5.04,0.97 v -17.77 c 0,-1.16 0,-1.61 -3.48,-1.61 h -1.31 v -1.25 c 0.62,0.03 4.9,0.14 6.2,0.14 1.08,0 5.47,-0.11 6.23,-0.14 v 1.25 h -1.33 c -3.48,0 -3.48,0.45 -3.48,1.61 z" /></g>    </g>
    <g
       id="g3331"
       transform="matrix(0.95119092,0,0,0.95119092,63.977366,-26.241734)"
       style="stroke-width:0.03708801;stroke-miterlimit:10.43299961;stroke-dasharray:none">
      <g
         word-spacing="normal"
         letter-spacing="normal"
         font-size-adjust="none"
         font-stretch="normal"
         font-weight="normal"
         font-variant="normal"
         font-style="normal"
         stroke-miterlimit="10.433"
         xml:space="preserve"
         transform="matrix(0.1025785,0,0,-0.1025785,-17.951237,99.34914)"
         id="g3329"
         style="font-style:normal;font-variant:normal;font-weight:normal;font-stretch:normal;letter-spacing:normal;word-spacing:normal;text-anchor:start;fill:none;fill-opacity:1;fill-rule:evenodd;stroke:#000000;stroke-width:0.36155733;stroke-linecap:butt;stroke-linejoin:miter;stroke-miterlimit:10.43299961;stroke-dasharray:none;stroke-dashoffset:0;stroke-opacity:1"><path
           id="path3323"
           d="m 488.35,417.65 h 0.16 0.16 l 0.15,0.01 h 0.08 l 0.08,0.01 h 0.07 l 0.08,0.01 0.07,0.01 0.07,0.01 0.07,0.02 0.07,0.02 0.07,0.02 0.06,0.02 0.06,0.02 0.06,0.03 0.05,0.03 0.06,0.04 0.05,0.03 0.04,0.05 0.04,0.04 0.04,0.05 0.02,0.03 0.02,0.03 0.01,0.03 0.02,0.03 0.01,0.03 0.02,0.03 0.01,0.04 0.01,0.03 0.01,0.04 v 0.04 l 0.01,0.04 0.01,0.04 v 0.04 l 0.01,0.04 v 0.05 0.04 c 0,1 -0.91,1 -1.75,1 h -26.96 c -0.84,0 -1.73,0 -1.73,-1 0,-1 0.89,-1 1.73,-1 z"
           inkscape:connector-curvature="0"
           style="fill:#000000;stroke-width:0.36155733;stroke-miterlimit:10.43299961;stroke-dasharray:none" /><path
           id="path3325"
           d="m 498.67,409.14 -0.02,-0.07 -0.01,-0.08 -0.02,-0.07 -0.02,-0.08 -0.03,-0.16 -0.04,-0.16 -0.04,-0.16 -0.03,-0.16 -0.04,-0.16 -0.04,-0.16 -0.01,-0.08 -0.02,-0.07 -0.02,-0.07 -0.01,-0.07 -0.02,-0.07 -0.01,-0.07 -0.01,-0.06 -0.02,-0.06 -0.01,-0.06 -0.01,-0.05 v -0.05 l -0.01,-0.04 -0.01,-0.04 v -0.04 -0.03 L 498.21,407 c 0,-0.89 0.71,-1.35 1.44,-1.35 0.61,0 1.5,0.39 1.85,1.39 0.06,0.11 0.65,2.44 0.95,3.69 l 1.09,4.48 c 0.3,1.1 0.6,2.19 0.85,3.35 0.2,0.84 0.61,2.28 0.65,2.48 0.75,1.55 3.39,6.08 8.11,6.08 2.25,0 2.7,-1.84 2.7,-3.48 0,-1.25 -0.35,-2.64 -0.75,-4.14 l -1.38,-5.79 -1,-3.78 c -0.21,-1 -0.66,-2.68 -0.66,-2.93 0,-0.89 0.7,-1.35 1.45,-1.35 1.55,0 1.84,1.25 2.24,2.85 0.7,2.78 2.54,10.06 3,12 0.14,0.65 2.78,6.62 8.22,6.62 2.13,0 2.68,-1.69 2.68,-3.48 0,-2.85 -2.09,-8.52 -3.09,-11.16 -0.46,-1.2 -0.64,-1.75 -0.64,-2.75 0,-2.33 1.73,-4.08 4.08,-4.08 4.68,0 6.53,7.27 6.53,7.67 0,0.5 -0.46,0.5 -0.6,0.5 -0.5,0 -0.5,-0.15 -0.75,-0.9 -0.75,-2.64 -2.34,-6.17 -5.08,-6.17 -0.85,0 -1.2,0.5 -1.2,1.64 0,1.25 0.45,2.45 0.89,3.54 0.96,2.58 3.05,8.11 3.05,10.96 0,3.23 -2,5.32 -5.74,5.32 -3.73,0 -6.26,-2.18 -8.1,-4.82 -0.07,0.65 -0.21,2.34 -1.61,3.53 -1.24,1.04 -2.83,1.29 -4.08,1.29 -4.49,0 -6.92,-3.18 -7.77,-4.32 -0.25,2.84 -2.34,4.32 -4.59,4.32 -2.28,0 -3.24,-1.93 -3.69,-2.82 -0.89,-1.75 -1.55,-4.69 -1.55,-4.85 0,-0.5 0.5,-0.5 0.61,-0.5 0.5,0 0.55,0.07 0.85,1.16 0.84,3.53 1.84,5.92 3.64,5.92 0.8,0 1.55,-0.39 1.55,-2.28 0,-1.05 -0.16,-1.61 -0.8,-4.19 z"
           inkscape:connector-curvature="0"
           style="fill:#000000;stroke-width:0.36155733;stroke-miterlimit:10.43299961;stroke-dasharray:none" /><path
           id="path3327"
           d="m 555.55,405.11 h -1.18 c -0.1,-0.77 -0.46,-2.83 -0.91,-3.18 -0.26,-0.2 -2.95,-0.2 -3.44,-0.2 h -6.42 c 3.66,3.23 4.88,4.2 6.97,5.84 2.58,2.07 4.98,4.22 4.98,7.54 0,4.21 -3.68,6.79 -8.15,6.79 -4.31,0 -7.25,-3.03 -7.25,-6.23 0,-1.78 1.5,-1.96 1.86,-1.96 0.83,0 1.84,0.6 1.84,1.85 0,0.62 -0.25,1.84 -2.06,1.84 1.08,2.47 3.45,3.24 5.09,3.24 3.49,0 5.3,-2.71 5.3,-5.53 0,-3.04 -2.16,-5.44 -3.28,-6.69 l -8.39,-8.3 c -0.36,-0.31 -0.36,-0.39 -0.36,-1.36 h 14.36 z"
           inkscape:connector-curvature="0"
           style="fill:#000000;stroke-width:0.36155733;stroke-miterlimit:10.43299961;stroke-dasharray:none" /></g>    </g>
  </g>
  <g
     inkscape:groupmode="layer"
     id="layer3"
     inkscape:label="markings"
     style="display:inline"
     transform="translate(0,17.083153)">
    <path
       transform="translate(-10.50101,-169.96856)"
       inkscape:connector-curvature="0"
       id="path831"
       d="M 36.779352,218.49644 H 97.599418"
       style="fill:none;stroke:#000000;stroke-width:0.35277778;stroke-linecap:butt;stroke-linejoin:miter;stroke-miterlimit:4;stroke-dasharray:none;stroke-opacity:1;marker-start:url(#marker2348);marker-end:url(#marker2386)" />
    <path
       transform="translate(-10.50101,-169.96856)"
       inkscape:connector-curvature="0"
       id="path833"
       d="m 16.855535,178.6488 h 4.369258 0.873852 v -1.67779"
       style="fill:none;stroke:#000000;stroke-width:0.35277778;stroke-linecap:butt;stroke-linejoin:miter;stroke-miterlimit:4;stroke-dasharray:none;stroke-dashoffset:0;stroke-opacity:1" />
    <path
       transform="translate(-10.50101,-169.96856)"
       inkscape:connector-curvature="0"
       id="path835"
       d="m 18.952779,202.76711 h 4.194488 v -1.6778"
       style="fill:none;stroke:#000000;stroke-width:0.35277778;stroke-linecap:butt;stroke-linejoin:miter;stroke-miterlimit:4;stroke-dasharray:none;stroke-dashoffset:0;stroke-opacity:1" />
    <path
       transform="translate(-10.50101,-169.96856)"
       inkscape:connector-curvature="0"
       id="path839"
       d="m 103.89115,173.61542 v 1.04862 h 3.98477"
       style="fill:none;stroke:#000000;stroke-width:0.35277778;stroke-linecap:butt;stroke-linejoin:miter;stroke-miterlimit:4;stroke-dasharray:none;stroke-dashoffset:0;stroke-opacity:1" />
    <path
       transform="translate(-10.50101,-169.96856)"
       inkscape:connector-curvature="0"
       id="path839-0"
       d="m 105.35923,194.37814 v 1.04861 h 3.35559"
       style="fill:none;stroke:#000000;stroke-width:0.35277778;stroke-linecap:butt;stroke-linejoin:miter;stroke-miterlimit:4;stroke-dasharray:none;stroke-dashoffset:0;stroke-opacity:1" />
    <path
       transform="translate(-10.50101,-169.96856)"
       inkscape:connector-curvature="0"
       id="path862"
       d="m 35.73073,173.40569 v 21.81134"
       style="fill:none;stroke:#000000;stroke-width:0.35277778;stroke-linecap:butt;stroke-linejoin:miter;stroke-miterlimit:4;stroke-dasharray:none;stroke-opacity:1;marker-start:url(#TriangleInM);marker-end:url(#TriangleOutM)" />
    <path
       transform="translate(-10.50101,-169.96856)"
       inkscape:connector-curvature="0"
       id="path864"
       d="m 98.648043,173.40569 v 17.82657"
       style="fill:none;stroke:#000000;stroke-width:0.35277778;stroke-linecap:butt;stroke-linejoin:miter;stroke-miterlimit:4;stroke-dasharray:none;stroke-opacity:1;marker-start:url(#marker2260);marker-end:url(#marker2300)" />
    <path
       transform="translate(-10.50101,-169.96856)"
       inkscape:connector-curvature="0"
       id="path817"
       d="M 14.758292,172.35707 H 115.426"
       style="fill:none;stroke:#000000;stroke-width:0.35277778;stroke-linecap:butt;stroke-linejoin:miter;stroke-miterlimit:4;stroke-dasharray:none;stroke-dashoffset:0;stroke-opacity:1" />
    <path
       transform="translate(-10.50101,-169.96856)"
       inkscape:connector-curvature="0"
       id="path819"
       d="m 35.730781,172.35707 v 54.52834"
       style="fill:none;stroke:#000000;stroke-width:0.35277779;stroke-linecap:butt;stroke-linejoin:miter;stroke-miterlimit:4;stroke-dasharray:1.05833337,1.05833337;stroke-dashoffset:0;stroke-opacity:1" />
    <path
       transform="translate(-10.50101,-169.96856)"
       inkscape:connector-curvature="0"
       id="path821"
       d="m 98.648043,172.35707 v 54.52834"
       style="fill:none;stroke:#000000;stroke-width:0.35277779;stroke-linecap:butt;stroke-linejoin:miter;stroke-miterlimit:4;stroke-dasharray:1.05833337,1.05833337;stroke-dashoffset:0;stroke-opacity:1" />
  </g>
</svg>
